<?xml version="1.0" encoding="utf-8" standalone="no"?>
<!DOCTYPE svg PUBLIC "-//W3C//DTD SVG 1.1//EN"
  "http://www.w3.org/Graphics/SVG/1.1/DTD/svg11.dtd">
<!-- Created with matplotlib (https://matplotlib.org/) -->
<svg height="288pt" version="1.1" viewBox="0 0 432 288" width="432pt" xmlns="http://www.w3.org/2000/svg" xmlns:xlink="http://www.w3.org/1999/xlink">
 <metadata>
  <rdf:RDF xmlns:cc="http://creativecommons.org/ns#" xmlns:dc="http://purl.org/dc/elements/1.1/" xmlns:rdf="http://www.w3.org/1999/02/22-rdf-syntax-ns#">
   <cc:Work>
    <dc:type rdf:resource="http://purl.org/dc/dcmitype/StillImage"/>
    <dc:date>2020-11-07T17:56:48.118674</dc:date>
    <dc:format>image/svg+xml</dc:format>
    <dc:creator>
     <cc:Agent>
      <dc:title>Matplotlib v3.3.1, https://matplotlib.org/</dc:title>
     </cc:Agent>
    </dc:creator>
   </cc:Work>
  </rdf:RDF>
 </metadata>
 <defs>
  <style type="text/css">*{stroke-linecap:butt;stroke-linejoin:round;}</style>
 </defs>
 <g id="figure_1">
  <g id="patch_1">
   <path d="M 0 288 
L 432 288 
L 432 0 
L 0 0 
z
" style="fill:#ffffff;"/>
  </g>
  <g id="axes_1">
   <g id="patch_2">
    <path d="M 54 252 
L 388.8 252 
L 388.8 34.56 
L 54 34.56 
z
" style="fill:#ffffff;"/>
   </g>
   <g id="matplotlib.axis_1">
    <g id="xtick_1">
     <g id="line2d_1">
      <path clip-path="url(#p323d92853d)" d="M 89.071668 252 
L 89.071668 34.56 
" style="fill:none;stroke:#cccccc;stroke-linecap:round;stroke-width:0.8;"/>
     </g>
     <g id="text_1">
      <!-- 0 -->
      <g style="fill:#262626;" transform="translate(85.890418 266.598437)scale(0.1 -0.1)">
       <defs>
        <path d="M 31.78125 66.40625 
Q 24.171875 66.40625 20.328125 58.90625 
Q 16.5 51.421875 16.5 36.375 
Q 16.5 21.390625 20.328125 13.890625 
Q 24.171875 6.390625 31.78125 6.390625 
Q 39.453125 6.390625 43.28125 13.890625 
Q 47.125 21.390625 47.125 36.375 
Q 47.125 51.421875 43.28125 58.90625 
Q 39.453125 66.40625 31.78125 66.40625 
z
M 31.78125 74.21875 
Q 44.046875 74.21875 50.515625 64.515625 
Q 56.984375 54.828125 56.984375 36.375 
Q 56.984375 17.96875 50.515625 8.265625 
Q 44.046875 -1.421875 31.78125 -1.421875 
Q 19.53125 -1.421875 13.0625 8.265625 
Q 6.59375 17.96875 6.59375 36.375 
Q 6.59375 54.828125 13.0625 64.515625 
Q 19.53125 74.21875 31.78125 74.21875 
z
" id="DejaVuSans-48"/>
       </defs>
       <use xlink:href="#DejaVuSans-48"/>
      </g>
     </g>
    </g>
    <g id="xtick_2">
     <g id="line2d_2">
      <path clip-path="url(#p323d92853d)" d="M 155.647015 252 
L 155.647015 34.56 
" style="fill:none;stroke:#cccccc;stroke-linecap:round;stroke-width:0.8;"/>
     </g>
     <g id="text_2">
      <!-- 5000 -->
      <g style="fill:#262626;" transform="translate(142.922015 266.598437)scale(0.1 -0.1)">
       <defs>
        <path d="M 10.796875 72.90625 
L 49.515625 72.90625 
L 49.515625 64.59375 
L 19.828125 64.59375 
L 19.828125 46.734375 
Q 21.96875 47.46875 24.109375 47.828125 
Q 26.265625 48.1875 28.421875 48.1875 
Q 40.625 48.1875 47.75 41.5 
Q 54.890625 34.8125 54.890625 23.390625 
Q 54.890625 11.625 47.5625 5.09375 
Q 40.234375 -1.421875 26.90625 -1.421875 
Q 22.3125 -1.421875 17.546875 -0.640625 
Q 12.796875 0.140625 7.71875 1.703125 
L 7.71875 11.625 
Q 12.109375 9.234375 16.796875 8.0625 
Q 21.484375 6.890625 26.703125 6.890625 
Q 35.15625 6.890625 40.078125 11.328125 
Q 45.015625 15.765625 45.015625 23.390625 
Q 45.015625 31 40.078125 35.4375 
Q 35.15625 39.890625 26.703125 39.890625 
Q 22.75 39.890625 18.8125 39.015625 
Q 14.890625 38.140625 10.796875 36.28125 
z
" id="DejaVuSans-53"/>
       </defs>
       <use xlink:href="#DejaVuSans-53"/>
       <use x="63.623047" xlink:href="#DejaVuSans-48"/>
       <use x="127.246094" xlink:href="#DejaVuSans-48"/>
       <use x="190.869141" xlink:href="#DejaVuSans-48"/>
      </g>
     </g>
    </g>
    <g id="xtick_3">
     <g id="line2d_3">
      <path clip-path="url(#p323d92853d)" d="M 222.222362 252 
L 222.222362 34.56 
" style="fill:none;stroke:#cccccc;stroke-linecap:round;stroke-width:0.8;"/>
     </g>
     <g id="text_3">
      <!-- 10000 -->
      <g style="fill:#262626;" transform="translate(206.316112 266.598437)scale(0.1 -0.1)">
       <defs>
        <path d="M 12.40625 8.296875 
L 28.515625 8.296875 
L 28.515625 63.921875 
L 10.984375 60.40625 
L 10.984375 69.390625 
L 28.421875 72.90625 
L 38.28125 72.90625 
L 38.28125 8.296875 
L 54.390625 8.296875 
L 54.390625 0 
L 12.40625 0 
z
" id="DejaVuSans-49"/>
       </defs>
       <use xlink:href="#DejaVuSans-49"/>
       <use x="63.623047" xlink:href="#DejaVuSans-48"/>
       <use x="127.246094" xlink:href="#DejaVuSans-48"/>
       <use x="190.869141" xlink:href="#DejaVuSans-48"/>
       <use x="254.492188" xlink:href="#DejaVuSans-48"/>
      </g>
     </g>
    </g>
    <g id="xtick_4">
     <g id="line2d_4">
      <path clip-path="url(#p323d92853d)" d="M 288.797708 252 
L 288.797708 34.56 
" style="fill:none;stroke:#cccccc;stroke-linecap:round;stroke-width:0.8;"/>
     </g>
     <g id="text_4">
      <!-- 15000 -->
      <g style="fill:#262626;" transform="translate(272.891458 266.598437)scale(0.1 -0.1)">
       <use xlink:href="#DejaVuSans-49"/>
       <use x="63.623047" xlink:href="#DejaVuSans-53"/>
       <use x="127.246094" xlink:href="#DejaVuSans-48"/>
       <use x="190.869141" xlink:href="#DejaVuSans-48"/>
       <use x="254.492188" xlink:href="#DejaVuSans-48"/>
      </g>
     </g>
    </g>
    <g id="xtick_5">
     <g id="line2d_5">
      <path clip-path="url(#p323d92853d)" d="M 355.373055 252 
L 355.373055 34.56 
" style="fill:none;stroke:#cccccc;stroke-linecap:round;stroke-width:0.8;"/>
     </g>
     <g id="text_5">
      <!-- 20000 -->
      <g style="fill:#262626;" transform="translate(339.466805 266.598437)scale(0.1 -0.1)">
       <defs>
        <path d="M 19.1875 8.296875 
L 53.609375 8.296875 
L 53.609375 0 
L 7.328125 0 
L 7.328125 8.296875 
Q 12.9375 14.109375 22.625 23.890625 
Q 32.328125 33.6875 34.8125 36.53125 
Q 39.546875 41.84375 41.421875 45.53125 
Q 43.3125 49.21875 43.3125 52.78125 
Q 43.3125 58.59375 39.234375 62.25 
Q 35.15625 65.921875 28.609375 65.921875 
Q 23.96875 65.921875 18.8125 64.3125 
Q 13.671875 62.703125 7.8125 59.421875 
L 7.8125 69.390625 
Q 13.765625 71.78125 18.9375 73 
Q 24.125 74.21875 28.421875 74.21875 
Q 39.75 74.21875 46.484375 68.546875 
Q 53.21875 62.890625 53.21875 53.421875 
Q 53.21875 48.921875 51.53125 44.890625 
Q 49.859375 40.875 45.40625 35.40625 
Q 44.1875 33.984375 37.640625 27.21875 
Q 31.109375 20.453125 19.1875 8.296875 
z
" id="DejaVuSans-50"/>
       </defs>
       <use xlink:href="#DejaVuSans-50"/>
       <use x="63.623047" xlink:href="#DejaVuSans-48"/>
       <use x="127.246094" xlink:href="#DejaVuSans-48"/>
       <use x="190.869141" xlink:href="#DejaVuSans-48"/>
       <use x="254.492188" xlink:href="#DejaVuSans-48"/>
      </g>
     </g>
    </g>
   </g>
   <g id="line2d_6">
    <path clip-path="url(#p323d92853d)" d="M 69.218182 251.798894 
L 70.747647 251.604135 
L 72.277113 251.260724 
L 73.806578 250.690115 
L 75.336044 249.797797 
L 76.865509 248.48673 
L 78.394975 246.681002 
L 79.92444 244.357277 
L 81.453906 241.576731 
L 84.512837 235.41617 
L 86.042302 232.649547 
L 87.571768 230.56138 
L 89.101233 229.444934 
L 90.630699 229.464072 
L 92.160164 230.613791 
L 93.68963 232.721888 
L 95.219095 235.490955 
L 98.278026 241.608836 
L 99.807492 244.350071 
L 101.336958 246.620636 
L 102.866423 248.347065 
L 104.395889 249.526639 
L 105.925354 250.191334 
L 107.45482 250.372387 
L 108.984285 250.073387 
L 110.513751 249.255673 
L 112.043216 247.836292 
L 113.572682 245.69662 
L 115.102147 242.698415 
L 116.631613 238.70344 
L 118.161078 233.592638 
L 119.690544 227.281518 
L 121.220009 219.729924 
L 122.749475 210.946716 
L 124.27894 200.991943 
L 125.808406 189.979937 
L 128.867337 165.549498 
L 133.455733 127.471114 
L 134.985199 115.909036 
L 136.514664 105.493153 
L 138.04413 96.444993 
L 139.573595 88.876507 
L 141.103061 82.811497 
L 142.632526 78.227456 
L 144.161992 75.097269 
L 145.691457 73.410571 
L 147.220923 73.165699 
L 148.750388 74.339067 
L 150.279854 76.850668 
L 151.809319 80.545724 
L 153.338785 85.203341 
L 154.86825 90.569095 
L 157.927181 102.490132 
L 164.045043 127.710252 
L 168.63344 146.899829 
L 170.162905 152.869257 
L 171.692371 158.157834 
L 173.221836 162.359748 
L 174.751302 165.063201 
L 176.280767 165.947037 
L 177.810233 164.887179 
L 179.339698 162.043715 
L 180.869164 157.896957 
L 182.39863 153.209016 
L 183.928095 148.906991 
L 185.457561 145.909872 
L 186.987026 144.943762 
L 188.516492 146.398136 
L 190.045957 150.263994 
L 191.575423 156.166667 
L 193.104888 163.474145 
L 196.163819 179.337483 
L 197.693285 186.552317 
L 199.22275 192.628201 
L 200.752216 197.270811 
L 202.281681 200.330498 
L 203.811147 201.780879 
L 205.340612 201.704808 
L 206.870078 200.290658 
L 208.399543 197.834039 
L 212.98794 188.580132 
L 214.517405 186.536733 
L 216.046871 185.719621 
L 217.576336 186.311859 
L 219.105802 188.263499 
L 220.635267 191.298396 
L 225.223664 202.188753 
L 226.753129 204.882414 
L 228.282595 206.668518 
L 229.81206 207.576185 
L 231.341526 207.821071 
L 234.400457 207.787179 
L 235.929922 208.316198 
L 237.459388 209.644249 
L 238.988853 211.930154 
L 240.518319 215.165023 
L 242.047784 219.181954 
L 246.636181 232.779371 
L 248.165646 236.673703 
L 249.695112 239.790606 
L 251.224577 241.992333 
L 252.754043 243.250226 
L 254.283508 243.641616 
L 255.812974 243.336763 
L 257.342439 242.575361 
L 260.40137 240.772785 
L 261.930836 240.208457 
L 263.460302 240.055471 
L 264.989767 240.314819 
L 268.048698 241.555823 
L 269.578164 242.137798 
L 271.107629 242.443504 
L 272.637095 242.374962 
L 274.16656 241.94153 
L 278.754957 239.868014 
L 280.284422 239.527138 
L 281.813888 239.557519 
L 283.343353 239.947625 
L 284.872819 240.607004 
L 289.461215 242.952924 
L 292.520146 244.187468 
L 295.579077 245.413266 
L 301.696939 248.339754 
L 303.226405 248.839413 
L 304.75587 249.096306 
L 306.285336 249.077611 
L 307.814801 248.793271 
L 309.344267 248.297037 
L 313.932663 246.547189 
L 315.462129 246.251333 
L 316.991594 246.232819 
L 318.52106 246.505477 
L 320.050525 247.033439 
L 323.109456 248.539531 
L 326.168387 250.051151 
L 327.697853 250.648523 
L 329.227318 251.108293 
L 330.756784 251.434856 
L 333.815715 251.755679 
L 336.874646 251.726083 
L 339.933577 251.332105 
L 341.463042 250.959213 
L 342.992508 250.449657 
L 346.051439 249.054097 
L 349.11037 247.474602 
L 350.639836 246.82279 
L 352.169301 246.385136 
L 353.698767 246.227207 
L 355.228232 246.373532 
L 356.757698 246.801373 
L 358.287163 247.446509 
L 364.405025 250.428924 
L 365.934491 250.946419 
L 367.463956 251.330206 
L 370.522887 251.76938 
L 373.581818 251.935869 
L 373.581818 251.935869 
" style="fill:none;stroke:#1f77b4;stroke-linecap:round;stroke-width:1.5;"/>
   </g>
   <g id="line2d_7">
    <path clip-path="url(#p323d92853d)" d="M 108.25676 251.915704 
L 110.563116 251.726561 
L 112.869473 251.231863 
L 114.022651 250.777951 
L 115.175829 250.120075 
L 116.329008 249.200918 
L 117.482186 247.961901 
L 118.635364 246.348887 
L 119.788542 244.318473 
L 120.94172 241.843625 
L 122.094899 238.917222 
L 123.248077 235.552116 
L 125.554433 227.626906 
L 127.86079 218.307114 
L 130.167146 207.562605 
L 132.473502 194.891893 
L 133.626681 187.605363 
L 135.933037 170.875499 
L 138.239393 151.741138 
L 141.698928 122.761042 
L 142.852106 114.381234 
L 144.005285 107.119897 
L 145.158463 101.101759 
L 146.311641 96.29794 
L 147.464819 92.524129 
L 148.617997 89.465986 
L 150.924354 83.903517 
L 152.077532 80.638978 
L 153.23071 76.706716 
L 154.383888 72.047694 
L 158.996601 51.048862 
L 160.149779 47.389151 
L 161.302958 45.251644 
L 162.456136 44.911232 
L 163.609314 46.490289 
L 164.762492 49.957707 
L 165.91567 55.142664 
L 167.068849 61.754251 
L 169.375205 77.619041 
L 171.681562 93.715371 
L 172.83474 100.639778 
L 173.987918 106.356647 
L 175.141096 110.752303 
L 176.294274 113.941813 
L 177.447453 116.257312 
L 179.753809 120.283102 
L 180.906987 123.036331 
L 182.060165 126.785589 
L 183.213344 131.646865 
L 184.366522 137.500748 
L 188.979235 163.298285 
L 190.132413 168.355544 
L 191.285591 172.403265 
L 192.438769 175.448158 
L 193.591947 177.589841 
L 194.745126 178.972847 
L 195.898304 179.745583 
L 197.051482 180.03649 
L 198.20466 179.949746 
L 199.357839 179.575633 
L 201.664195 178.350432 
L 202.817373 177.733824 
L 203.970551 177.296903 
L 205.12373 177.179463 
L 206.276908 177.504095 
L 207.430086 178.359674 
L 208.583264 179.787755 
L 209.736442 181.773204 
L 210.889621 184.240165 
L 213.195977 190.036769 
L 215.502333 195.682414 
L 216.655512 197.980191 
L 217.80869 199.779285 
L 218.961868 201.076615 
L 220.115046 201.963327 
L 223.574581 203.990206 
L 224.727759 205.079972 
L 225.880937 206.550694 
L 227.034116 208.375657 
L 232.800007 218.591903 
L 238.565898 226.976267 
L 242.025432 232.802574 
L 243.17861 234.424234 
L 244.331789 235.615722 
L 245.484967 236.238175 
L 246.638145 236.205312 
L 247.791323 235.501838 
L 248.944501 234.191354 
L 250.09768 232.412092 
L 253.557214 226.368669 
L 254.710393 224.872667 
L 255.863571 223.943964 
L 257.016749 223.685909 
L 258.169927 224.137054 
L 259.323105 225.27458 
L 260.476284 227.023026 
L 261.629462 229.265893 
L 263.935818 234.641077 
L 266.242175 240.140084 
L 267.395353 242.574181 
L 268.548531 244.650622 
L 269.701709 246.29551 
L 270.854887 247.463462 
L 272.008066 248.13377 
L 273.161244 248.306241 
L 274.314422 247.998877 
L 275.4676 247.248486 
L 276.620778 246.113679 
L 277.773957 244.678013 
L 282.38667 238.308561 
L 283.539848 237.167032 
L 284.693026 236.358296 
L 285.846204 235.877085 
L 286.999382 235.672719 
L 288.152561 235.666646 
L 290.458917 235.939765 
L 292.765273 236.363107 
L 293.918452 236.686094 
L 295.07163 237.162897 
L 296.224808 237.851246 
L 297.377986 238.783924 
L 298.531164 239.957085 
L 300.837521 242.823881 
L 303.143877 245.81759 
L 304.297055 247.136629 
L 305.450234 248.243639 
L 306.603412 249.095582 
L 307.75659 249.670622 
L 308.909768 249.964578 
L 310.062947 249.9872 
L 311.216125 249.759946 
L 312.369303 249.315839 
L 314.675659 247.974331 
L 316.982016 246.486867 
L 318.135194 245.888433 
L 319.288372 245.485221 
L 320.44155 245.327285 
L 321.594729 245.435344 
L 322.747907 245.797573 
L 323.901085 246.372411 
L 326.207441 247.897654 
L 328.513798 249.457257 
L 330.820154 250.659936 
L 333.126511 251.399519 
L 335.432867 251.771217 
L 337.739224 251.925886 
L 337.739224 251.925886 
" style="fill:none;stroke:#ff7f0e;stroke-linecap:round;stroke-width:1.5;"/>
   </g>
   <g id="patch_3">
    <path d="M 54 252 
L 54 34.56 
" style="fill:none;stroke:#cccccc;stroke-linecap:square;stroke-linejoin:miter;stroke-width:0.8;"/>
   </g>
   <g id="patch_4">
    <path d="M 388.8 252 
L 388.8 34.56 
" style="fill:none;stroke:#cccccc;stroke-linecap:square;stroke-linejoin:miter;stroke-width:0.8;"/>
   </g>
   <g id="patch_5">
    <path d="M 54 252 
L 388.8 252 
" style="fill:none;stroke:#cccccc;stroke-linecap:square;stroke-linejoin:miter;stroke-width:0.8;"/>
   </g>
   <g id="patch_6">
    <path d="M 54 34.56 
L 388.8 34.56 
" style="fill:none;stroke:#cccccc;stroke-linecap:square;stroke-linejoin:miter;stroke-width:0.8;"/>
   </g>
   <g id="text_6">
    <!-- Distribution of Std. Deviations of Sales Price Growth Rate  -->
    <g style="fill:#262626;" transform="translate(47.890313 15.122625)scale(0.12 -0.12)">
     <defs>
      <path d="M 19.671875 64.796875 
L 19.671875 8.109375 
L 31.59375 8.109375 
Q 46.6875 8.109375 53.6875 14.9375 
Q 60.6875 21.78125 60.6875 36.53125 
Q 60.6875 51.171875 53.6875 57.984375 
Q 46.6875 64.796875 31.59375 64.796875 
z
M 9.8125 72.90625 
L 30.078125 72.90625 
Q 51.265625 72.90625 61.171875 64.09375 
Q 71.09375 55.28125 71.09375 36.53125 
Q 71.09375 17.671875 61.125 8.828125 
Q 51.171875 0 30.078125 0 
L 9.8125 0 
z
" id="DejaVuSans-68"/>
      <path d="M 9.421875 54.6875 
L 18.40625 54.6875 
L 18.40625 0 
L 9.421875 0 
z
M 9.421875 75.984375 
L 18.40625 75.984375 
L 18.40625 64.59375 
L 9.421875 64.59375 
z
" id="DejaVuSans-105"/>
      <path d="M 44.28125 53.078125 
L 44.28125 44.578125 
Q 40.484375 46.53125 36.375 47.5 
Q 32.28125 48.484375 27.875 48.484375 
Q 21.1875 48.484375 17.84375 46.4375 
Q 14.5 44.390625 14.5 40.28125 
Q 14.5 37.15625 16.890625 35.375 
Q 19.28125 33.59375 26.515625 31.984375 
L 29.59375 31.296875 
Q 39.15625 29.25 43.1875 25.515625 
Q 47.21875 21.78125 47.21875 15.09375 
Q 47.21875 7.46875 41.1875 3.015625 
Q 35.15625 -1.421875 24.609375 -1.421875 
Q 20.21875 -1.421875 15.453125 -0.5625 
Q 10.6875 0.296875 5.421875 2 
L 5.421875 11.28125 
Q 10.40625 8.6875 15.234375 7.390625 
Q 20.0625 6.109375 24.8125 6.109375 
Q 31.15625 6.109375 34.5625 8.28125 
Q 37.984375 10.453125 37.984375 14.40625 
Q 37.984375 18.0625 35.515625 20.015625 
Q 33.0625 21.96875 24.703125 23.78125 
L 21.578125 24.515625 
Q 13.234375 26.265625 9.515625 29.90625 
Q 5.8125 33.546875 5.8125 39.890625 
Q 5.8125 47.609375 11.28125 51.796875 
Q 16.75 56 26.8125 56 
Q 31.78125 56 36.171875 55.265625 
Q 40.578125 54.546875 44.28125 53.078125 
z
" id="DejaVuSans-115"/>
      <path d="M 18.3125 70.21875 
L 18.3125 54.6875 
L 36.8125 54.6875 
L 36.8125 47.703125 
L 18.3125 47.703125 
L 18.3125 18.015625 
Q 18.3125 11.328125 20.140625 9.421875 
Q 21.96875 7.515625 27.59375 7.515625 
L 36.8125 7.515625 
L 36.8125 0 
L 27.59375 0 
Q 17.1875 0 13.234375 3.875 
Q 9.28125 7.765625 9.28125 18.015625 
L 9.28125 47.703125 
L 2.6875 47.703125 
L 2.6875 54.6875 
L 9.28125 54.6875 
L 9.28125 70.21875 
z
" id="DejaVuSans-116"/>
      <path d="M 41.109375 46.296875 
Q 39.59375 47.171875 37.8125 47.578125 
Q 36.03125 48 33.890625 48 
Q 26.265625 48 22.1875 43.046875 
Q 18.109375 38.09375 18.109375 28.8125 
L 18.109375 0 
L 9.078125 0 
L 9.078125 54.6875 
L 18.109375 54.6875 
L 18.109375 46.1875 
Q 20.953125 51.171875 25.484375 53.578125 
Q 30.03125 56 36.53125 56 
Q 37.453125 56 38.578125 55.875 
Q 39.703125 55.765625 41.0625 55.515625 
z
" id="DejaVuSans-114"/>
      <path d="M 48.6875 27.296875 
Q 48.6875 37.203125 44.609375 42.84375 
Q 40.53125 48.484375 33.40625 48.484375 
Q 26.265625 48.484375 22.1875 42.84375 
Q 18.109375 37.203125 18.109375 27.296875 
Q 18.109375 17.390625 22.1875 11.75 
Q 26.265625 6.109375 33.40625 6.109375 
Q 40.53125 6.109375 44.609375 11.75 
Q 48.6875 17.390625 48.6875 27.296875 
z
M 18.109375 46.390625 
Q 20.953125 51.265625 25.265625 53.625 
Q 29.59375 56 35.59375 56 
Q 45.5625 56 51.78125 48.09375 
Q 58.015625 40.1875 58.015625 27.296875 
Q 58.015625 14.40625 51.78125 6.484375 
Q 45.5625 -1.421875 35.59375 -1.421875 
Q 29.59375 -1.421875 25.265625 0.953125 
Q 20.953125 3.328125 18.109375 8.203125 
L 18.109375 0 
L 9.078125 0 
L 9.078125 75.984375 
L 18.109375 75.984375 
z
" id="DejaVuSans-98"/>
      <path d="M 8.5 21.578125 
L 8.5 54.6875 
L 17.484375 54.6875 
L 17.484375 21.921875 
Q 17.484375 14.15625 20.5 10.265625 
Q 23.53125 6.390625 29.59375 6.390625 
Q 36.859375 6.390625 41.078125 11.03125 
Q 45.3125 15.671875 45.3125 23.6875 
L 45.3125 54.6875 
L 54.296875 54.6875 
L 54.296875 0 
L 45.3125 0 
L 45.3125 8.40625 
Q 42.046875 3.421875 37.71875 1 
Q 33.40625 -1.421875 27.6875 -1.421875 
Q 18.265625 -1.421875 13.375 4.4375 
Q 8.5 10.296875 8.5 21.578125 
z
M 31.109375 56 
z
" id="DejaVuSans-117"/>
      <path d="M 30.609375 48.390625 
Q 23.390625 48.390625 19.1875 42.75 
Q 14.984375 37.109375 14.984375 27.296875 
Q 14.984375 17.484375 19.15625 11.84375 
Q 23.34375 6.203125 30.609375 6.203125 
Q 37.796875 6.203125 41.984375 11.859375 
Q 46.1875 17.53125 46.1875 27.296875 
Q 46.1875 37.015625 41.984375 42.703125 
Q 37.796875 48.390625 30.609375 48.390625 
z
M 30.609375 56 
Q 42.328125 56 49.015625 48.375 
Q 55.71875 40.765625 55.71875 27.296875 
Q 55.71875 13.875 49.015625 6.21875 
Q 42.328125 -1.421875 30.609375 -1.421875 
Q 18.84375 -1.421875 12.171875 6.21875 
Q 5.515625 13.875 5.515625 27.296875 
Q 5.515625 40.765625 12.171875 48.375 
Q 18.84375 56 30.609375 56 
z
" id="DejaVuSans-111"/>
      <path d="M 54.890625 33.015625 
L 54.890625 0 
L 45.90625 0 
L 45.90625 32.71875 
Q 45.90625 40.484375 42.875 44.328125 
Q 39.84375 48.1875 33.796875 48.1875 
Q 26.515625 48.1875 22.3125 43.546875 
Q 18.109375 38.921875 18.109375 30.90625 
L 18.109375 0 
L 9.078125 0 
L 9.078125 54.6875 
L 18.109375 54.6875 
L 18.109375 46.1875 
Q 21.34375 51.125 25.703125 53.5625 
Q 30.078125 56 35.796875 56 
Q 45.21875 56 50.046875 50.171875 
Q 54.890625 44.34375 54.890625 33.015625 
z
" id="DejaVuSans-110"/>
      <path id="DejaVuSans-32"/>
      <path d="M 37.109375 75.984375 
L 37.109375 68.5 
L 28.515625 68.5 
Q 23.6875 68.5 21.796875 66.546875 
Q 19.921875 64.59375 19.921875 59.515625 
L 19.921875 54.6875 
L 34.71875 54.6875 
L 34.71875 47.703125 
L 19.921875 47.703125 
L 19.921875 0 
L 10.890625 0 
L 10.890625 47.703125 
L 2.296875 47.703125 
L 2.296875 54.6875 
L 10.890625 54.6875 
L 10.890625 58.5 
Q 10.890625 67.625 15.140625 71.796875 
Q 19.390625 75.984375 28.609375 75.984375 
z
" id="DejaVuSans-102"/>
      <path d="M 53.515625 70.515625 
L 53.515625 60.890625 
Q 47.90625 63.578125 42.921875 64.890625 
Q 37.9375 66.21875 33.296875 66.21875 
Q 25.25 66.21875 20.875 63.09375 
Q 16.5 59.96875 16.5 54.203125 
Q 16.5 49.359375 19.40625 46.890625 
Q 22.3125 44.4375 30.421875 42.921875 
L 36.375 41.703125 
Q 47.40625 39.59375 52.65625 34.296875 
Q 57.90625 29 57.90625 20.125 
Q 57.90625 9.515625 50.796875 4.046875 
Q 43.703125 -1.421875 29.984375 -1.421875 
Q 24.8125 -1.421875 18.96875 -0.25 
Q 13.140625 0.921875 6.890625 3.21875 
L 6.890625 13.375 
Q 12.890625 10.015625 18.65625 8.296875 
Q 24.421875 6.59375 29.984375 6.59375 
Q 38.421875 6.59375 43.015625 9.90625 
Q 47.609375 13.234375 47.609375 19.390625 
Q 47.609375 24.75 44.3125 27.78125 
Q 41.015625 30.8125 33.5 32.328125 
L 27.484375 33.5 
Q 16.453125 35.6875 11.515625 40.375 
Q 6.59375 45.0625 6.59375 53.421875 
Q 6.59375 63.09375 13.40625 68.65625 
Q 20.21875 74.21875 32.171875 74.21875 
Q 37.3125 74.21875 42.625 73.28125 
Q 47.953125 72.359375 53.515625 70.515625 
z
" id="DejaVuSans-83"/>
      <path d="M 45.40625 46.390625 
L 45.40625 75.984375 
L 54.390625 75.984375 
L 54.390625 0 
L 45.40625 0 
L 45.40625 8.203125 
Q 42.578125 3.328125 38.25 0.953125 
Q 33.9375 -1.421875 27.875 -1.421875 
Q 17.96875 -1.421875 11.734375 6.484375 
Q 5.515625 14.40625 5.515625 27.296875 
Q 5.515625 40.1875 11.734375 48.09375 
Q 17.96875 56 27.875 56 
Q 33.9375 56 38.25 53.625 
Q 42.578125 51.265625 45.40625 46.390625 
z
M 14.796875 27.296875 
Q 14.796875 17.390625 18.875 11.75 
Q 22.953125 6.109375 30.078125 6.109375 
Q 37.203125 6.109375 41.296875 11.75 
Q 45.40625 17.390625 45.40625 27.296875 
Q 45.40625 37.203125 41.296875 42.84375 
Q 37.203125 48.484375 30.078125 48.484375 
Q 22.953125 48.484375 18.875 42.84375 
Q 14.796875 37.203125 14.796875 27.296875 
z
" id="DejaVuSans-100"/>
      <path d="M 10.6875 12.40625 
L 21 12.40625 
L 21 0 
L 10.6875 0 
z
" id="DejaVuSans-46"/>
      <path d="M 56.203125 29.59375 
L 56.203125 25.203125 
L 14.890625 25.203125 
Q 15.484375 15.921875 20.484375 11.0625 
Q 25.484375 6.203125 34.421875 6.203125 
Q 39.59375 6.203125 44.453125 7.46875 
Q 49.3125 8.734375 54.109375 11.28125 
L 54.109375 2.78125 
Q 49.265625 0.734375 44.1875 -0.34375 
Q 39.109375 -1.421875 33.890625 -1.421875 
Q 20.796875 -1.421875 13.15625 6.1875 
Q 5.515625 13.8125 5.515625 26.8125 
Q 5.515625 40.234375 12.765625 48.109375 
Q 20.015625 56 32.328125 56 
Q 43.359375 56 49.78125 48.890625 
Q 56.203125 41.796875 56.203125 29.59375 
z
M 47.21875 32.234375 
Q 47.125 39.59375 43.09375 43.984375 
Q 39.0625 48.390625 32.421875 48.390625 
Q 24.90625 48.390625 20.390625 44.140625 
Q 15.875 39.890625 15.1875 32.171875 
z
" id="DejaVuSans-101"/>
      <path d="M 2.984375 54.6875 
L 12.5 54.6875 
L 29.59375 8.796875 
L 46.6875 54.6875 
L 56.203125 54.6875 
L 35.6875 0 
L 23.484375 0 
z
" id="DejaVuSans-118"/>
      <path d="M 34.28125 27.484375 
Q 23.390625 27.484375 19.1875 25 
Q 14.984375 22.515625 14.984375 16.5 
Q 14.984375 11.71875 18.140625 8.90625 
Q 21.296875 6.109375 26.703125 6.109375 
Q 34.1875 6.109375 38.703125 11.40625 
Q 43.21875 16.703125 43.21875 25.484375 
L 43.21875 27.484375 
z
M 52.203125 31.203125 
L 52.203125 0 
L 43.21875 0 
L 43.21875 8.296875 
Q 40.140625 3.328125 35.546875 0.953125 
Q 30.953125 -1.421875 24.3125 -1.421875 
Q 15.921875 -1.421875 10.953125 3.296875 
Q 6 8.015625 6 15.921875 
Q 6 25.140625 12.171875 29.828125 
Q 18.359375 34.515625 30.609375 34.515625 
L 43.21875 34.515625 
L 43.21875 35.40625 
Q 43.21875 41.609375 39.140625 45 
Q 35.0625 48.390625 27.6875 48.390625 
Q 23 48.390625 18.546875 47.265625 
Q 14.109375 46.140625 10.015625 43.890625 
L 10.015625 52.203125 
Q 14.9375 54.109375 19.578125 55.046875 
Q 24.21875 56 28.609375 56 
Q 40.484375 56 46.34375 49.84375 
Q 52.203125 43.703125 52.203125 31.203125 
z
" id="DejaVuSans-97"/>
      <path d="M 9.421875 75.984375 
L 18.40625 75.984375 
L 18.40625 0 
L 9.421875 0 
z
" id="DejaVuSans-108"/>
      <path d="M 19.671875 64.796875 
L 19.671875 37.40625 
L 32.078125 37.40625 
Q 38.96875 37.40625 42.71875 40.96875 
Q 46.484375 44.53125 46.484375 51.125 
Q 46.484375 57.671875 42.71875 61.234375 
Q 38.96875 64.796875 32.078125 64.796875 
z
M 9.8125 72.90625 
L 32.078125 72.90625 
Q 44.34375 72.90625 50.609375 67.359375 
Q 56.890625 61.8125 56.890625 51.125 
Q 56.890625 40.328125 50.609375 34.8125 
Q 44.34375 29.296875 32.078125 29.296875 
L 19.671875 29.296875 
L 19.671875 0 
L 9.8125 0 
z
" id="DejaVuSans-80"/>
      <path d="M 48.78125 52.59375 
L 48.78125 44.1875 
Q 44.96875 46.296875 41.140625 47.34375 
Q 37.3125 48.390625 33.40625 48.390625 
Q 24.65625 48.390625 19.8125 42.84375 
Q 14.984375 37.3125 14.984375 27.296875 
Q 14.984375 17.28125 19.8125 11.734375 
Q 24.65625 6.203125 33.40625 6.203125 
Q 37.3125 6.203125 41.140625 7.25 
Q 44.96875 8.296875 48.78125 10.40625 
L 48.78125 2.09375 
Q 45.015625 0.34375 40.984375 -0.53125 
Q 36.96875 -1.421875 32.421875 -1.421875 
Q 20.0625 -1.421875 12.78125 6.34375 
Q 5.515625 14.109375 5.515625 27.296875 
Q 5.515625 40.671875 12.859375 48.328125 
Q 20.21875 56 33.015625 56 
Q 37.15625 56 41.109375 55.140625 
Q 45.0625 54.296875 48.78125 52.59375 
z
" id="DejaVuSans-99"/>
      <path d="M 59.515625 10.40625 
L 59.515625 29.984375 
L 43.40625 29.984375 
L 43.40625 38.09375 
L 69.28125 38.09375 
L 69.28125 6.78125 
Q 63.578125 2.734375 56.6875 0.65625 
Q 49.8125 -1.421875 42 -1.421875 
Q 24.90625 -1.421875 15.25 8.5625 
Q 5.609375 18.5625 5.609375 36.375 
Q 5.609375 54.25 15.25 64.234375 
Q 24.90625 74.21875 42 74.21875 
Q 49.125 74.21875 55.546875 72.453125 
Q 61.96875 70.703125 67.390625 67.28125 
L 67.390625 56.78125 
Q 61.921875 61.421875 55.765625 63.765625 
Q 49.609375 66.109375 42.828125 66.109375 
Q 29.4375 66.109375 22.71875 58.640625 
Q 16.015625 51.171875 16.015625 36.375 
Q 16.015625 21.625 22.71875 14.15625 
Q 29.4375 6.6875 42.828125 6.6875 
Q 48.046875 6.6875 52.140625 7.59375 
Q 56.25 8.5 59.515625 10.40625 
z
" id="DejaVuSans-71"/>
      <path d="M 4.203125 54.6875 
L 13.1875 54.6875 
L 24.421875 12.015625 
L 35.59375 54.6875 
L 46.1875 54.6875 
L 57.421875 12.015625 
L 68.609375 54.6875 
L 77.59375 54.6875 
L 63.28125 0 
L 52.6875 0 
L 40.921875 44.828125 
L 29.109375 0 
L 18.5 0 
z
" id="DejaVuSans-119"/>
      <path d="M 54.890625 33.015625 
L 54.890625 0 
L 45.90625 0 
L 45.90625 32.71875 
Q 45.90625 40.484375 42.875 44.328125 
Q 39.84375 48.1875 33.796875 48.1875 
Q 26.515625 48.1875 22.3125 43.546875 
Q 18.109375 38.921875 18.109375 30.90625 
L 18.109375 0 
L 9.078125 0 
L 9.078125 75.984375 
L 18.109375 75.984375 
L 18.109375 46.1875 
Q 21.34375 51.125 25.703125 53.5625 
Q 30.078125 56 35.796875 56 
Q 45.21875 56 50.046875 50.171875 
Q 54.890625 44.34375 54.890625 33.015625 
z
" id="DejaVuSans-104"/>
      <path d="M 44.390625 34.1875 
Q 47.5625 33.109375 50.5625 29.59375 
Q 53.5625 26.078125 56.59375 19.921875 
L 66.609375 0 
L 56 0 
L 46.6875 18.703125 
Q 43.0625 26.03125 39.671875 28.421875 
Q 36.28125 30.8125 30.421875 30.8125 
L 19.671875 30.8125 
L 19.671875 0 
L 9.8125 0 
L 9.8125 72.90625 
L 32.078125 72.90625 
Q 44.578125 72.90625 50.734375 67.671875 
Q 56.890625 62.453125 56.890625 51.90625 
Q 56.890625 45.015625 53.6875 40.46875 
Q 50.484375 35.9375 44.390625 34.1875 
z
M 19.671875 64.796875 
L 19.671875 38.921875 
L 32.078125 38.921875 
Q 39.203125 38.921875 42.84375 42.21875 
Q 46.484375 45.515625 46.484375 51.90625 
Q 46.484375 58.296875 42.84375 61.546875 
Q 39.203125 64.796875 32.078125 64.796875 
z
" id="DejaVuSans-82"/>
     </defs>
     <use xlink:href="#DejaVuSans-68"/>
     <use x="77.001953" xlink:href="#DejaVuSans-105"/>
     <use x="104.785156" xlink:href="#DejaVuSans-115"/>
     <use x="156.884766" xlink:href="#DejaVuSans-116"/>
     <use x="196.09375" xlink:href="#DejaVuSans-114"/>
     <use x="237.207031" xlink:href="#DejaVuSans-105"/>
     <use x="264.990234" xlink:href="#DejaVuSans-98"/>
     <use x="328.466797" xlink:href="#DejaVuSans-117"/>
     <use x="391.845703" xlink:href="#DejaVuSans-116"/>
     <use x="431.054688" xlink:href="#DejaVuSans-105"/>
     <use x="458.837891" xlink:href="#DejaVuSans-111"/>
     <use x="520.019531" xlink:href="#DejaVuSans-110"/>
     <use x="583.398438" xlink:href="#DejaVuSans-32"/>
     <use x="615.185547" xlink:href="#DejaVuSans-111"/>
     <use x="676.367188" xlink:href="#DejaVuSans-102"/>
     <use x="711.572266" xlink:href="#DejaVuSans-32"/>
     <use x="743.359375" xlink:href="#DejaVuSans-83"/>
     <use x="806.835938" xlink:href="#DejaVuSans-116"/>
     <use x="846.044922" xlink:href="#DejaVuSans-100"/>
     <use x="909.521484" xlink:href="#DejaVuSans-46"/>
     <use x="941.308594" xlink:href="#DejaVuSans-32"/>
     <use x="973.095703" xlink:href="#DejaVuSans-68"/>
     <use x="1050.097656" xlink:href="#DejaVuSans-101"/>
     <use x="1111.621094" xlink:href="#DejaVuSans-118"/>
     <use x="1170.800781" xlink:href="#DejaVuSans-105"/>
     <use x="1198.583984" xlink:href="#DejaVuSans-97"/>
     <use x="1259.863281" xlink:href="#DejaVuSans-116"/>
     <use x="1299.072266" xlink:href="#DejaVuSans-105"/>
     <use x="1326.855469" xlink:href="#DejaVuSans-111"/>
     <use x="1388.037109" xlink:href="#DejaVuSans-110"/>
     <use x="1451.416016" xlink:href="#DejaVuSans-115"/>
     <use x="1503.515625" xlink:href="#DejaVuSans-32"/>
     <use x="1535.302734" xlink:href="#DejaVuSans-111"/>
     <use x="1596.484375" xlink:href="#DejaVuSans-102"/>
     <use x="1631.689453" xlink:href="#DejaVuSans-32"/>
     <use x="1663.476562" xlink:href="#DejaVuSans-83"/>
     <use x="1726.953125" xlink:href="#DejaVuSans-97"/>
     <use x="1788.232422" xlink:href="#DejaVuSans-108"/>
     <use x="1816.015625" xlink:href="#DejaVuSans-101"/>
     <use x="1877.539062" xlink:href="#DejaVuSans-115"/>
     <use x="1929.638672" xlink:href="#DejaVuSans-32"/>
     <use x="1961.425781" xlink:href="#DejaVuSans-80"/>
     <use x="2019.978516" xlink:href="#DejaVuSans-114"/>
     <use x="2061.091797" xlink:href="#DejaVuSans-105"/>
     <use x="2088.875" xlink:href="#DejaVuSans-99"/>
     <use x="2143.855469" xlink:href="#DejaVuSans-101"/>
     <use x="2205.378906" xlink:href="#DejaVuSans-32"/>
     <use x="2237.166016" xlink:href="#DejaVuSans-71"/>
     <use x="2314.65625" xlink:href="#DejaVuSans-114"/>
     <use x="2353.519531" xlink:href="#DejaVuSans-111"/>
     <use x="2414.701172" xlink:href="#DejaVuSans-119"/>
     <use x="2496.488281" xlink:href="#DejaVuSans-116"/>
     <use x="2535.697266" xlink:href="#DejaVuSans-104"/>
     <use x="2599.076172" xlink:href="#DejaVuSans-32"/>
     <use x="2630.863281" xlink:href="#DejaVuSans-82"/>
     <use x="2698.095703" xlink:href="#DejaVuSans-97"/>
     <use x="2759.375" xlink:href="#DejaVuSans-116"/>
     <use x="2798.583984" xlink:href="#DejaVuSans-101"/>
     <use x="2860.107422" xlink:href="#DejaVuSans-32"/>
    </g>
    <!--  between new and old assessment areas. -->
    <g style="fill:#262626;" transform="translate(97.20375 28.56)scale(0.12 -0.12)">
     <defs>
      <path d="M 52 44.1875 
Q 55.375 50.25 60.0625 53.125 
Q 64.75 56 71.09375 56 
Q 79.640625 56 84.28125 50.015625 
Q 88.921875 44.046875 88.921875 33.015625 
L 88.921875 0 
L 79.890625 0 
L 79.890625 32.71875 
Q 79.890625 40.578125 77.09375 44.375 
Q 74.3125 48.1875 68.609375 48.1875 
Q 61.625 48.1875 57.5625 43.546875 
Q 53.515625 38.921875 53.515625 30.90625 
L 53.515625 0 
L 44.484375 0 
L 44.484375 32.71875 
Q 44.484375 40.625 41.703125 44.40625 
Q 38.921875 48.1875 33.109375 48.1875 
Q 26.21875 48.1875 22.15625 43.53125 
Q 18.109375 38.875 18.109375 30.90625 
L 18.109375 0 
L 9.078125 0 
L 9.078125 54.6875 
L 18.109375 54.6875 
L 18.109375 46.1875 
Q 21.1875 51.21875 25.484375 53.609375 
Q 29.78125 56 35.6875 56 
Q 41.65625 56 45.828125 52.96875 
Q 50 49.953125 52 44.1875 
z
" id="DejaVuSans-109"/>
     </defs>
     <use xlink:href="#DejaVuSans-32"/>
     <use x="31.787109" xlink:href="#DejaVuSans-98"/>
     <use x="95.263672" xlink:href="#DejaVuSans-101"/>
     <use x="156.787109" xlink:href="#DejaVuSans-116"/>
     <use x="195.996094" xlink:href="#DejaVuSans-119"/>
     <use x="277.783203" xlink:href="#DejaVuSans-101"/>
     <use x="339.306641" xlink:href="#DejaVuSans-101"/>
     <use x="400.830078" xlink:href="#DejaVuSans-110"/>
     <use x="464.208984" xlink:href="#DejaVuSans-32"/>
     <use x="495.996094" xlink:href="#DejaVuSans-110"/>
     <use x="559.375" xlink:href="#DejaVuSans-101"/>
     <use x="620.898438" xlink:href="#DejaVuSans-119"/>
     <use x="702.685547" xlink:href="#DejaVuSans-32"/>
     <use x="734.472656" xlink:href="#DejaVuSans-97"/>
     <use x="795.751953" xlink:href="#DejaVuSans-110"/>
     <use x="859.130859" xlink:href="#DejaVuSans-100"/>
     <use x="922.607422" xlink:href="#DejaVuSans-32"/>
     <use x="954.394531" xlink:href="#DejaVuSans-111"/>
     <use x="1015.576172" xlink:href="#DejaVuSans-108"/>
     <use x="1043.359375" xlink:href="#DejaVuSans-100"/>
     <use x="1106.835938" xlink:href="#DejaVuSans-32"/>
     <use x="1138.623047" xlink:href="#DejaVuSans-97"/>
     <use x="1199.902344" xlink:href="#DejaVuSans-115"/>
     <use x="1252.001953" xlink:href="#DejaVuSans-115"/>
     <use x="1304.101562" xlink:href="#DejaVuSans-101"/>
     <use x="1365.625" xlink:href="#DejaVuSans-115"/>
     <use x="1417.724609" xlink:href="#DejaVuSans-115"/>
     <use x="1469.824219" xlink:href="#DejaVuSans-109"/>
     <use x="1567.236328" xlink:href="#DejaVuSans-101"/>
     <use x="1628.759766" xlink:href="#DejaVuSans-110"/>
     <use x="1692.138672" xlink:href="#DejaVuSans-116"/>
     <use x="1731.347656" xlink:href="#DejaVuSans-32"/>
     <use x="1763.134766" xlink:href="#DejaVuSans-97"/>
     <use x="1824.414062" xlink:href="#DejaVuSans-114"/>
     <use x="1863.277344" xlink:href="#DejaVuSans-101"/>
     <use x="1924.800781" xlink:href="#DejaVuSans-97"/>
     <use x="1986.080078" xlink:href="#DejaVuSans-115"/>
     <use x="2038.179688" xlink:href="#DejaVuSans-46"/>
    </g>
   </g>
   <g id="legend_1">
    <g id="patch_7">
     <path d="M 296.592188 71.91625 
L 381.8 71.91625 
Q 383.8 71.91625 383.8 69.91625 
L 383.8 41.56 
Q 383.8 39.56 381.8 39.56 
L 296.592188 39.56 
Q 294.592188 39.56 294.592188 41.56 
L 294.592188 69.91625 
Q 294.592188 71.91625 296.592188 71.91625 
z
" style="fill:#ffffff;opacity:0.8;stroke:#cccccc;stroke-linejoin:miter;"/>
    </g>
    <g id="line2d_8">
     <path d="M 298.592188 47.658437 
L 318.592188 47.658437 
" style="fill:none;stroke:#0000ff;stroke-linecap:round;stroke-width:4;"/>
    </g>
    <g id="line2d_9"/>
    <g id="text_7">
     <!-- Old Areas -->
     <g style="fill:#262626;" transform="translate(326.592188 51.158437)scale(0.1 -0.1)">
      <defs>
       <path d="M 39.40625 66.21875 
Q 28.65625 66.21875 22.328125 58.203125 
Q 16.015625 50.203125 16.015625 36.375 
Q 16.015625 22.609375 22.328125 14.59375 
Q 28.65625 6.59375 39.40625 6.59375 
Q 50.140625 6.59375 56.421875 14.59375 
Q 62.703125 22.609375 62.703125 36.375 
Q 62.703125 50.203125 56.421875 58.203125 
Q 50.140625 66.21875 39.40625 66.21875 
z
M 39.40625 74.21875 
Q 54.734375 74.21875 63.90625 63.9375 
Q 73.09375 53.65625 73.09375 36.375 
Q 73.09375 19.140625 63.90625 8.859375 
Q 54.734375 -1.421875 39.40625 -1.421875 
Q 24.03125 -1.421875 14.8125 8.828125 
Q 5.609375 19.09375 5.609375 36.375 
Q 5.609375 53.65625 14.8125 63.9375 
Q 24.03125 74.21875 39.40625 74.21875 
z
" id="DejaVuSans-79"/>
       <path d="M 34.1875 63.1875 
L 20.796875 26.90625 
L 47.609375 26.90625 
z
M 28.609375 72.90625 
L 39.796875 72.90625 
L 67.578125 0 
L 57.328125 0 
L 50.6875 18.703125 
L 17.828125 18.703125 
L 11.1875 0 
L 0.78125 0 
z
" id="DejaVuSans-65"/>
      </defs>
      <use xlink:href="#DejaVuSans-79"/>
      <use x="78.710938" xlink:href="#DejaVuSans-108"/>
      <use x="106.494141" xlink:href="#DejaVuSans-100"/>
      <use x="169.970703" xlink:href="#DejaVuSans-32"/>
      <use x="201.757812" xlink:href="#DejaVuSans-65"/>
      <use x="270.166016" xlink:href="#DejaVuSans-114"/>
      <use x="309.029297" xlink:href="#DejaVuSans-101"/>
      <use x="370.552734" xlink:href="#DejaVuSans-97"/>
      <use x="431.832031" xlink:href="#DejaVuSans-115"/>
     </g>
    </g>
    <g id="line2d_10">
     <path d="M 298.592188 62.336562 
L 318.592188 62.336562 
" style="fill:none;stroke:#ffa500;stroke-linecap:round;stroke-width:4;"/>
    </g>
    <g id="line2d_11"/>
    <g id="text_8">
     <!-- New Areas -->
     <g style="fill:#262626;" transform="translate(326.592188 65.836562)scale(0.1 -0.1)">
      <defs>
       <path d="M 9.8125 72.90625 
L 23.09375 72.90625 
L 55.421875 11.921875 
L 55.421875 72.90625 
L 64.984375 72.90625 
L 64.984375 0 
L 51.703125 0 
L 19.390625 60.984375 
L 19.390625 0 
L 9.8125 0 
z
" id="DejaVuSans-78"/>
      </defs>
      <use xlink:href="#DejaVuSans-78"/>
      <use x="74.804688" xlink:href="#DejaVuSans-101"/>
      <use x="136.328125" xlink:href="#DejaVuSans-119"/>
      <use x="218.115234" xlink:href="#DejaVuSans-32"/>
      <use x="249.902344" xlink:href="#DejaVuSans-65"/>
      <use x="318.310547" xlink:href="#DejaVuSans-114"/>
      <use x="357.173828" xlink:href="#DejaVuSans-101"/>
      <use x="418.697266" xlink:href="#DejaVuSans-97"/>
      <use x="479.976562" xlink:href="#DejaVuSans-115"/>
     </g>
    </g>
   </g>
  </g>
 </g>
 <defs>
  <clipPath id="p323d92853d">
   <rect height="217.44" width="334.8" x="54" y="34.56"/>
  </clipPath>
 </defs>
</svg>
